<svg width="177" height="17" viewBox="0 0 177 17" fill="none" xmlns="http://www.w3.org/2000/svg">
<g opacity="0.6">
<path d="M9.25 1H7C6.00544 1 5.05161 1.39509 4.34835 2.09835C3.64509 2.80161 3.25 3.75544 3.25 4.75V7H1V10H3.25V16H6.25V10H8.5L9.25 7H6.25V4.75C6.25 4.55109 6.32902 4.36032 6.46967 4.21967C6.61032 4.07902 6.80109 4 7 4H9.25V1Z" stroke="white" stroke-linecap="round" stroke-linejoin="round"/>
<path d="M45.5 1H38C35.9289 1 34.25 2.67893 34.25 4.75V12.25C34.25 14.3211 35.9289 16 38 16H45.5C47.5711 16 49.25 14.3211 49.25 12.25V4.75C49.25 2.67893 47.5711 1 45.5 1Z" stroke="white" stroke-linecap="round" stroke-linejoin="round"/>
<path d="M44.75 8.02736C44.8426 8.65154 44.736 9.28902 44.4453 9.84912C44.1547 10.4092 43.6949 10.8634 43.1312 11.1471C42.5676 11.4308 41.9289 11.5296 41.3059 11.4293C40.6829 11.3291 40.1073 11.0349 39.6612 10.5887C39.215 10.1425 38.9208 9.56702 38.8206 8.94402C38.7203 8.32102 38.8191 7.68228 39.1028 7.11864C39.3865 6.555 39.8407 6.09517 40.4008 5.80454C40.9609 5.51392 41.5983 5.4073 42.2225 5.49986C42.8592 5.59427 43.4487 5.89096 43.9038 6.34609C44.3589 6.80122 44.6556 7.39067 44.75 8.02736Z" stroke="white" stroke-linecap="round" stroke-linejoin="round"/>
<path d="M45.875 4.375H45.8825" stroke="white" stroke-linecap="round" stroke-linejoin="round"/>
<path d="M92.6409 1.00841C91.8404 1.57307 90.954 2.00495 90.016 2.28741C89.5125 1.70852 88.8434 1.29822 88.0992 1.112C87.3549 0.925781 86.5715 0.972624 85.8547 1.24619C85.138 1.51977 84.5225 2.00686 84.0916 2.64161C83.6607 3.27636 83.4352 4.02813 83.4454 4.79525V5.6312C81.9764 5.6693 80.5207 5.34348 79.208 4.68277C77.8954 4.02207 76.7665 3.04698 75.9219 1.84435C75.9219 1.84435 72.5781 9.36789 80.1016 12.7117C78.38 13.8803 76.3291 14.4663 74.25 14.3836C81.7735 18.5633 90.969 14.3836 90.969 4.77018C90.9682 4.53733 90.9458 4.30505 90.9021 4.07634C91.7553 3.23495 92.3573 2.17264 92.6409 1.00841V1.00841Z" stroke="white" stroke-linecap="round" stroke-linejoin="round"/>
<path d="M128.141 6.5C129.334 6.5 130.479 6.97411 131.323 7.81802C132.167 8.66193 132.641 9.80653 132.641 11V16.25H129.641V11C129.641 10.6022 129.483 10.2206 129.202 9.93934C128.92 9.65804 128.539 9.5 128.141 9.5C127.743 9.5 127.362 9.65804 127.08 9.93934C126.799 10.2206 126.641 10.6022 126.641 11V16.25H123.641V11C123.641 9.80653 124.115 8.66193 124.959 7.81802C125.803 6.97411 126.947 6.5 128.141 6.5V6.5Z" stroke="white" stroke-linecap="round" stroke-linejoin="round"/>
<path d="M120.641 7.25H117.641V16.25H120.641V7.25Z" stroke="white" stroke-linecap="round" stroke-linejoin="round"/>
<path d="M119.141 5C119.969 5 120.641 4.32843 120.641 3.5C120.641 2.67157 119.969 2 119.141 2C118.312 2 117.641 2.67157 117.641 3.5C117.641 4.32843 118.312 5 119.141 5Z" stroke="white" stroke-linecap="round" stroke-linejoin="round"/>
<path d="M175.264 4.9799C175.167 4.59162 174.969 4.23586 174.69 3.94856C174.412 3.66125 174.062 3.45258 173.677 3.34362C172.27 3 166.641 3 166.641 3C166.641 3 161.012 3 159.605 3.37634C159.22 3.48531 158.87 3.69398 158.591 3.98128C158.313 4.26858 158.115 4.62434 158.018 5.01262C157.76 6.44073 157.634 7.88945 157.641 9.34058C157.632 10.8026 157.758 12.2624 158.018 13.7013C158.125 14.0775 158.327 14.4197 158.605 14.6949C158.883 14.97 159.228 15.1689 159.605 15.2721C161.012 15.6484 166.641 15.6484 166.641 15.6484C166.641 15.6484 172.27 15.6484 173.677 15.2721C174.062 15.1631 174.412 14.9545 174.69 14.6672C174.969 14.3799 175.167 14.0241 175.264 13.6358C175.52 12.2185 175.646 10.7808 175.64 9.34058C175.65 7.87853 175.524 6.41876 175.264 4.9799V4.9799Z" stroke="white" stroke-linecap="round" stroke-linejoin="round"/>
<path d="M164.8 12.0157L169.504 9.34035L164.8 6.66504V12.0157Z" stroke="white" stroke-linecap="round" stroke-linejoin="round"/>
</g>
</svg>
